<svg width="115" height="36" viewBox="0 0 115 36" xmlns="http://www.w3.org/2000/svg" xmlns:xlink="http://www.w3.org/1999/xlink"><title>Slice 1</title><defs><path id="a" d="M0 .124h114.999009V26H0"/><path id="c" d="M0 .124h114.999009V26H0"/><path id="e" d="M0 .124h114.999009V26H0V.124z"/></defs><g fill="none" fill-rule="evenodd"><path d="M14.1088147 21.3566h2.3456034c.6830603 0 1.1093535-.388 1.1093535-1.005 0-.588-.4262932-1.005-1.1093535-1.005h-2.3456034c-.1040949 0-.1873707.085-.1873707.19v1.631c0 .104.0832758.189.1873707.189M14.1088147 25.3326h2.430862c.7534483 0 1.2094828-.402 1.2094828-1.091 0-.602-.4272845-1.091-1.2094828-1.091h-2.430862c-.1040949 0-.1873707.085-.1873707.19v1.803c0 .104.0832758.189.1873707.189M32.8436034 20.3058c-.4580172-.609-1.2223706-1.102-2.1453448-1.102-1.7359052 0-2.9890086 1.335-2.9890086 3.143 0 1.809 1.2531034 3.144 2.9890086 3.144.8020259 0 1.5515086-.341 1.9520259-.684.0356896-.031.0535345-.076.0535345-.123v-.922c0-.084-.0664224-.152-.1496983-.152h-2.1542673c-.1100431 0-.2002586-.09-.2002586-.202v-1.375c0-.112.0902155-.203.2002586-.203h3.9754311v-2.166l-1.2729311.702c-.0852586.048-.1992672.019-.25875-.06M36.171069 22.3392c0-2.957 2.0997413-4.952 4.8042241-4.952 1.7606897 0 2.8928448.907 3.5759052 1.992.0505603.08.0218103.184-.0604742.229l-1.0806034.593c-.0703879.039-.1606035.013-.2032328-.056-.4609913-.738-1.309612-1.265-2.2315948-1.265-1.8122414 0-3.1565517 1.435-3.1565517 3.459 0 1.995 1.3443103 3.46 3.1565517 3.46.9229741 0 1.7715948-.541 2.2325862-1.269.0426293-.067.1308621-.094.20125-.057l1.0885345.569c.08625.045.115.15.0614655.232-.7058621 1.086-1.8251293 2.017-3.5838362 2.017-2.7044828 0-4.8042241-2.009-4.8042241-4.952M53.2072284 22.3392c0-1.981-1.1956034-3.459-3.0365948-3.459-1.8548707 0-3.0365948 1.478-3.0365948 3.459 0 1.967 1.1817241 3.46 3.0365948 3.46 1.8409914 0 3.0365948-1.493 3.0365948-3.46m-7.7218534 0c0-2.382 1.3472845-4.235 3.3885345-4.785 3.4490086-.929 6.6144827 2.331 5.8640086 5.969-.4609914 2.233-2.2266379 3.768-4.5672845 3.768-2.7481034 0-4.6852586-2.095-4.6852586-4.952M64.7010819 27.0065v-7.279l-2.882931 7.341c-.0118966.031-.041638.051-.0743535.051h-.6027586c-.0327155 0-.0624569-.02-.0743535-.051l-2.8968103-7.341v7.279c0 .062-.0505603.113-.1120259.113h-1.4414655c-.0614655 0-.1120258-.051-.1120258-.113v-9.349c0-.062.0505603-.112.1120258-.112h2.082888c.0921982 0 .1754741.057.2101724.143l2.5329741 6.57 2.5190948-6.569c.0337069-.087.1169828-.144.2101724-.144h2.082888c.0614655 0 .1120258.05.1120258.112v9.349c0 .062-.0505603.113-.1120258.113h-1.4414655c-.0624569 0-.1120259-.051-.1120259-.113M81.0962155 26.9461v-9.228c0-.095.0773276-.173.1715086-.173h6.1604311c.094181 0 .1715086.078.1715086.173v1.132c0 .096-.0773276.173-.1715086.173h-4.4949138c-.0951724 0-.1715086.078-.1715086.174v2.122c0 .096.0763362.173.1715086.173h4.3957758c.0941811 0 .1715087.078.1715087.173v1.132c0 .096-.0773276.174-.1715087.174h-4.3957758c-.0951724 0-.1715086.077-.1715086.173v2.324c0 .095.0763362.173.1715086.173h4.4949138c.094181 0 .1715086.077.1715086.173v1.132c0 .096-.0773276.173-.1715086.173h-6.1604311c-.094181 0-.1715086-.077-.1715086-.173M95.5440819 20.5309c0-.919-.6830603-1.507-1.6218966-1.507h-2.1215517c-.0931896 0-.1695258.076-.1695258.171v2.7c0 .095.0763362.172.1695258.172h2.1215517c.9388363 0 1.6218966-.603 1.6218966-1.536m-.2062069 6.504l-1.9926724-3.406c-.0307328-.052-.08625-.084-.1467242-.084h-1.3978448c-.0931896 0-.1695258.077-.1695258.172v3.231c0 .095-.0763362.171-.1705173.171h-1.3244827c-.0941811 0-.1705173-.076-.1705173-.171v-9.231c0-.095.0763362-.172.1705173-.172h3.9992241c1.8786638 0 3.1168965 1.22 3.1168965 3 0 1.576-.9616379 2.494-2.0234051 2.764-.115.029-.1734914.155-.1110345.257.3965517.639 1.6030603 2.584 2.0432328 3.292.0703879.114-.0118966.261-.1447414.261h-1.5316811c-.0594827 0-.1159913-.032-.1467241-.084" fill="#34313F"/><g transform="translate(0 5)"><mask id="b" fill="#fff"><use xlink:href="#a"/></mask><path d="M108.495957 21.9504v-9.236c0-.094.075345-.169.167543-.169h6.168362c.092198 0 .167543.075.167543.169v1.14c0 .094-.075345.169-.167543.169h-4.502845c-.093189 0-.167543.076-.167543.169v2.131c0 .093.074354.169.167543.169h4.403707c.092198 0 .167543.076.167543.169v1.14c0 .094-.075345.169-.167543.169h-4.403707c-.093189 0-.167543.076-.167543.169v2.333c0 .093.074354.169.167543.169h4.502845c.092198 0 .167543.075.167543.168v1.141c0 .093-.075345.169-.167543.169H108.6635c-.092198 0-.167543-.076-.167543-.169" fill="#34313F" mask="url(#b)"/></g><path d="M98.4707328 22.2994c0-2.957 2.0997412-4.952 4.8042242-4.952 1.76069 0 2.892845.907 3.575905 1.992.05056.08.02181.184-.060474.229l-1.080604.593c-.070387.039-.160603.013-.203232-.056-.460992-.738-1.309612-1.265-2.231595-1.265-1.812241 0-3.156552 1.435-3.156552 3.459 0 1.995 1.344311 3.46 3.156552 3.46.922974 0 1.771595-.541 2.232586-1.269.042629-.067.130862-.094.20125-.057l1.088535.569c.08625.045.115.15.061465.232-.705862 1.086-1.825129 2.017-3.583836 2.017-2.704483 0-4.8042242-2.009-4.8042242-4.952M76.9943836 27.0065v-7.279l-2.882931 7.341c-.0118966.031-.0416379.051-.0743535.051h-.6027586c-.0327155 0-.0624569-.02-.0743534-.051l-2.8968104-7.341v7.279c0 .062-.0505603.113-.1120258.113h-1.4414656c-.0614655 0-.1120258-.051-.1120258-.113v-9.349c0-.062.0505603-.112.1120258-.112h2.082888c.0921983 0 .1754741.057.2101724.143l2.5329741 6.57 2.5190949-6.569c.0337069-.087.1169827-.144.2101724-.144h2.0828879c.0614655 0 .1120259.05.1120259.112v9.349c0 .062-.0505604.113-.1120259.113h-1.4414655c-.0624569 0-.1120259-.051-.1120259-.113" fill="#34313F"/><g transform="translate(0 5)"><mask id="d" fill="#fff"><use xlink:href="#c"/></mask><path d="M.882625 26h15.8690086l-.0099138-.006H.84594397c.01288793.001.0237931.006.03668103.006" fill="#FFF" mask="url(#d)"/></g><g transform="translate(0 5)"><mask id="f" fill="#fff"><use xlink:href="#e"/></mask><path d="M23.7657414 21.9534c0 .096-.0773276.174-.1725.174H21.916819c-.0951724 0-.1715087-.078-.1715087-.174v-9.227c0-.096.0763363-.173.1715087-.173h1.6764224c.0951724 0 .1725.077.1725.173v9.227zM33.1937586.1844c-.1050862.042-.2081896.098-.2984052.19L16.4335 12.5534h.4619828c1.8072844 0 2.7322413 1.162 2.7322413 2.439 0 .993-.5135344 1.726-1.2025431 2.051-.1199569.057-.1159913.219.0059483.269.8040086.334 1.3809914 1.202 1.3809914 2.216 0 1.45-.9388362 2.599-2.76 2.599h-4.9638362c-.1040948 0-.1883621-.085-.1883621-.19v-6.04L.24427586 24.4964c-.52344827.555-.15168103 1.467.60176724 1.498h32.6619828c.4788362 0 .8674569-.392.8674569-.875v-4.259c-.9348707.884-2.1651725 1.439-3.6780173 1.439-2.78875 0-5.0659483-1.938-5.0659483-4.952 0-3.029 2.2771983-4.952 5.0659483-4.952 1.7636638 0 2.9404311.81 3.6780173 1.796v-13.2c0-.65-.6483621-1.02-1.1817242-.807z" fill="#34313F" mask="url(#f)"/></g></g></svg>
